<svg xmlns="http://www.w3.org/2000/svg" width="620" height="391" viewBox="0 0 620 391" role="img" aria-label="Back of Boov Essentials card">
  <defs>
    <radialGradient id="card-bg" cx="80%" cy="0%" r="130%">
      <stop offset="0" stop-color="#e6dffb"/>
      <stop offset="0.48" stop-color="#ddd4f7"/>
      <stop offset="1" stop-color="#cfc4ef"/>
    </radialGradient>
    <linearGradient id="stripe" x1="0" y1="0" x2="0" y2="1">
      <stop offset="0" stop-color="#0d1730"/>
      <stop offset="0.55" stop-color="#081127"/>
      <stop offset="1" stop-color="#0d1730"/>
    </linearGradient>
    <pattern id="grain" width="4" height="4" patternUnits="userSpaceOnUse" patternTransform="rotate(25)">
      <rect width="2" height="4" fill="#101a36" opacity="0.015"/>
      <rect x="2" width="2" height="4" fill="#fff" opacity="0.025"/>
    </pattern>
    <pattern id="signature" width="16" height="16" patternUnits="userSpaceOnUse" patternTransform="rotate(45)">
      <rect width="6" height="16" fill="#101a36" opacity="0.045"/>
    </pattern>
    <pattern id="qr-data" width="12" height="12" patternUnits="userSpaceOnUse">
      <path d="M0 0h4v4H0zM8 0h4v8H8zM4 4h4v4H4zM0 8h8v4H0z" fill="#101a36"/>
    </pattern>
  </defs>

  <rect width="620" height="391" rx="26" fill="url(#card-bg)"/>
  <rect width="620" height="391" rx="26" fill="url(#grain)"/>

  <g transform="translate(525 11)" fill="none" stroke="#101a36">
    <ellipse cx="8" cy="8" rx="6.4" ry="3.4" transform="rotate(-32 8 8)" stroke-width="1.1"/>
    <circle cx="8" cy="8" r="1.8" fill="#101a36" stroke="none"/>
    <circle cx="12.6" cy="4.6" r="1.4" fill="#101a36" stroke="none"/>
  </g>
  <text x="548" y="25" fill="#101a36" font-family="Poppins, Arial, sans-serif" font-size="14" font-weight="500" letter-spacing="2">boov</text>

  <rect y="38" width="620" height="48" fill="url(#stripe)"/>

  <rect x="30" y="98" width="560" height="34" rx="3" fill="#f7f5f0" stroke="#101a36" stroke-opacity="0.12"/>
  <rect x="30" y="98" width="560" height="34" rx="3" fill="url(#signature)"/>
  <text x="42" y="119" fill="#8a8fa0" font-family="Space Grotesk, Arial, sans-serif" font-size="7" letter-spacing="1.4">AUTHORIZED SIGNATURE</text>
  <rect x="541" y="105" width="40" height="20" rx="2" fill="#fff" stroke="#101a36" stroke-opacity="0.18"/>
  <text x="561" y="119" fill="#101a36" font-family="Arial, sans-serif" font-size="10" letter-spacing="2" text-anchor="middle">***</text>

  <rect x="30" y="154" width="114" height="114" rx="6" fill="#f7f5f0" stroke="#101a36" stroke-width="1.5"/>
  <rect x="37" y="161" width="100" height="100" fill="url(#qr-data)"/>
  <g fill="#f7f5f0" stroke="#101a36" stroke-width="4">
    <rect x="37" y="161" width="28" height="28"/>
    <rect x="109" y="161" width="28" height="28"/>
    <rect x="37" y="233" width="28" height="28"/>
  </g>
  <g fill="#101a36">
    <rect x="45" y="169" width="12" height="12"/>
    <rect x="117" y="169" width="12" height="12"/>
    <rect x="45" y="241" width="12" height="12"/>
  </g>
  <text x="87" y="289" fill="#101a36" font-family="Space Grotesk, Arial, sans-serif" font-size="9.5" font-weight="500" letter-spacing="1.5" text-anchor="middle">SCAN TO SUPPORT</text>
  <text x="87" y="305" fill="#3b466a" font-family="Space Grotesk, Arial, sans-serif" font-size="9" letter-spacing="0.5" text-anchor="middle">boov.org/bv0427</text>

  <text x="588" y="170" fill="#101a36" font-family="Space Grotesk, Arial, sans-serif" font-size="12" font-weight="500" letter-spacing="1.2" text-anchor="end">card id: BV-0427</text>
  <text x="588" y="205" fill="#3b466a" font-family="Space Grotesk, Arial, sans-serif" font-size="10.5" letter-spacing="1.25" text-anchor="end">FOR ESSENTIAL USE</text>
  <text x="588" y="226" fill="#3b466a" font-family="Space Grotesk, Arial, sans-serif" font-size="10.5" letter-spacing="1.25" text-anchor="end">NO CASH WITHDRAWAL</text>
  <text x="588" y="255" fill="#101a36" font-family="Space Grotesk, Arial, sans-serif" font-size="10.5" font-weight="500" letter-spacing="0.6" text-anchor="end">support.boov.org</text>

  <text x="310" y="371" fill="#4a5578" font-family="Space Grotesk, Arial, sans-serif" font-size="9.5" letter-spacing="0.75" text-anchor="middle">this card connects community support to everyday essentials.</text>
</svg>
